# xmcd
#
# Track frame offsets:
#       150
#       15437
#       31447
#       43017
#       60502
#       73737
#       86475
#       103254
#       119287
#       133760
#       145587
#       162640
#       176745
#       186657
#       196710
#       211365
#       225330
#       238427
#       252282
#       265922
#       282422
#       297725
#       311632
#
# Disc length: 4327 seconds
#
# Revision: 0
# Processed by: cddbd v1.4PL0 Copyright (c) Steve Scherf et al.
# Submitted via: WhereIsIt 3.26
#
DISCID=6510e517
DTITLE=Various Artist - Das grosse Deutsche Country Festival [CD 4)
DYEAR=1900
DGENRE=
TTITLE0=Tom Astor - Das ist meine Freiheit
TTITLE1=Volker Lechtenbrink - Leben, so wie ich es mag
TTITLE2=Freddy Quinn - Die Freiheit der Berge
TTITLE3=Sammy's Saloon - Louisiana Träume
TTITLE4=Truck Stop - Arizona, Arizona
TTITLE5=H O W Company - Frei sein
TTITLE6=Larry Schuba and Western Union - Bi-Ba-Baby
TTITLE7=Tom Astor - Junger Adler
TTITLE8=Volker Lechtenbrink - Der Macher
TTITLE9=Freddy Quinn - Ich möcht' in Tennessee leben
TTITLE10=Linda Feller - Du bist das Salz in meiner Suppe
TTITLE11=Tom Astor - Take it easy, nimm's leicht
TTITLE12=Gudrun Lange and Kactus - Ich tanz' im Regen
TTITLE13=Peter Held - Gehn wir nochmal den Weg nach Westen
TTITLE14=Jonny Hill - London
TTITLE15=Greyhounds - Locker vom Hocker
TTITLE16=Linda Feller - Ich weiß genau was ich will
TTITLE17=Tom Astor - Du bist da (wenn's drum geht)
TTITLE18=Gunter Gabriel - Ohne Moos nichts los
TTITLE19=Larry Schuba and Western Union - Bärenstark
TTITLE20=Peter Hinnen - Auf meiner Ranch bin ich König
TTITLE21=Peter Held - Der Spieler
TTITLE22=Tom Astor - Nutz die Zeit
EXTD=
EXTT0=
EXTT1=
EXTT2=
EXTT3=
EXTT4=
EXTT5=
EXTT6=
EXTT7=
EXTT8=
EXTT9=
EXTT10=
EXTT11=
EXTT12=
EXTT13=
EXTT14=
EXTT15=
EXTT16=
EXTT17=
EXTT18=
EXTT19=
EXTT20=
EXTT21=
EXTT22=
PLAYORDER=
